<svg width="48" height="48" viewBox="0 0 48 48" fill="none" xmlns="http://www.w3.org/2000/svg">
<path d="M24.4941 28.2697C24.3702 27.9987 24.8033 27.7955 24.9277 27.9983L33.538 41.0041C33.7221 40.9684 33.9119 40.9494 34.1054 40.9494C35.8859 40.9496 37.3289 42.5279 37.329 44.4748C37.329 46.4219 35.886 48.001 34.1054 48.0012C32.3247 48.0012 30.8808 46.4221 30.8808 44.4748C30.8809 43.7429 31.0843 43.0627 31.4335 42.4992L24.4941 28.2697Z" fill="#16B4E0"/>
<path d="M27.2847 25.0145L41.188 30.7577C41.7527 30.1821 42.5104 29.8301 43.3433 29.83C45.0898 29.83 46.5064 31.3782 46.5064 33.288C46.5062 35.1976 45.0897 36.746 43.3433 36.746C41.5971 36.7457 40.1813 35.1974 40.1812 33.288C40.1812 33.2086 40.1842 33.1296 40.189 33.0516L27.1607 25.4217C26.8505 25.2183 27.0365 24.9467 27.2847 25.0145Z" fill="#544898"/>
<path d="M38.8818 5.2832C40.2859 5.2832 41.4248 6.52818 41.4248 8.06348C41.4248 9.59879 40.2859 10.8438 38.8818 10.8438C38.3666 10.8437 37.8878 10.6749 37.4873 10.3867L26.665 18.2324C26.4171 18.4358 26.1694 18.1648 26.417 17.8936L36.3564 8.37402C36.3461 8.27206 36.3398 8.16847 36.3398 8.06348C36.3398 6.52832 37.478 5.28343 38.8818 5.2832Z" fill="#EE812F"/>
<path d="M44.9618 15.5957C46.6398 15.5957 47.9999 17.0831 47.9999 18.918C47.9998 20.7528 46.6397 22.2402 44.9618 22.2402C43.825 22.2402 42.8353 21.5568 42.3143 20.5459L27.8456 21.6279C27.4735 21.6957 27.4116 21.2211 27.8456 21.1533L42.0321 18.0361C42.3854 16.6293 43.563 15.5957 44.9618 15.5957Z" fill="#EA2140"/>
<path d="M29.3309 0C30.5294 7.91796e-05 31.5008 1.06249 31.5008 2.37305C31.5008 3.68363 30.5294 4.74601 29.3309 4.74609C29.279 4.74609 29.2276 4.74122 29.1766 4.7373C29.1864 4.73971 29.1959 4.74376 29.2059 4.74609L24.1834 15.5947C24.0594 15.8659 23.6879 15.7302 23.7498 15.459L27.5789 3.77051C27.3169 3.37832 27.161 2.89596 27.161 2.37305C27.161 1.06244 28.1323 0 29.3309 0Z" fill="#F7E132"/>
<path d="M19.6526 1.35547C20.6799 1.35547 21.5129 2.26625 21.5129 3.38965C21.5128 4.13984 21.14 4.79299 20.5872 5.14551L20.8323 15.0498C20.8323 15.3887 20.4609 15.3891 20.3987 15.1182L19.0364 5.30664C18.3125 5.02832 17.7924 4.27631 17.7922 3.38965C17.7922 2.26632 18.6253 1.35559 19.6526 1.35547Z" fill="#FFDE24"/>
<path d="M12.6522 6.09766C13.6111 6.09766 14.3885 6.94856 14.3885 7.99707C14.3885 8.3348 14.3064 8.65105 14.1649 8.92578L17.8622 16.2041C17.9859 16.4752 17.7386 16.6779 17.5526 16.4746L12.8182 9.88574C12.7637 9.89139 12.7081 9.89551 12.6522 9.89551C11.6937 9.89524 10.9171 9.04521 10.9169 7.99707C10.9169 6.94873 11.6936 6.09792 12.6522 6.09766Z" fill="#AEC806"/>
<path d="M5.45984 10.9805C6.69257 10.9806 7.69226 12.0739 7.69226 13.4219L15.8749 19.251C16.0604 19.3867 15.8746 19.7251 15.6268 19.5898L6.84753 15.3311C6.46636 15.6628 5.98489 15.8623 5.45984 15.8623C4.22708 15.8623 3.22752 14.7699 3.22742 13.4219C3.22742 12.0738 4.22702 10.9805 5.45984 10.9805Z" fill="#AAC339"/>
<path d="M2.35645 20.8828C3.2287 20.883 3.98826 21.4024 4.39551 22.1729L15.1279 22.5107C15.4377 22.5786 15.3758 22.9852 15.1279 22.9854L4.5459 24.4062C4.20068 25.3602 3.3516 26.036 2.35645 26.0361C1.05513 26.0361 0 24.882 0 23.459C0.000171561 22.0362 1.05524 20.8828 2.35645 20.8828Z" fill="#2FAF6E"/>
<path d="M15.8151 25.9608C16.0631 25.8252 16.1871 26.0966 16.0631 26.2322L7.52307 33.4041C7.55069 33.5619 7.56702 33.7248 7.56702 33.8914C7.5668 35.3141 6.51257 36.4674 5.21155 36.4676C3.91037 36.4676 2.85532 35.3142 2.8551 33.8914C2.8551 32.4684 3.91024 31.3143 5.21155 31.3143C5.52725 31.3143 5.82801 31.3834 6.10315 31.5067L15.8151 25.9608Z" fill="#0EB9D3"/>
<path d="M18.1713 28.209C18.2953 28.0057 18.6053 28.142 18.5433 28.4131L14.1537 38.8223C14.3 39.1361 14.3842 39.4909 14.3842 39.8672C14.384 41.1401 13.4408 42.1717 12.2767 42.1719C11.1125 42.1719 10.1685 41.1403 10.1683 39.8672C10.1683 38.5941 11.1124 37.5616 12.2767 37.5616C12.325 37.5616 12.3728 37.5659 12.4203 37.5694C12.4152 37.5686 12.4098 37.5672 12.4047 37.5665L18.1713 28.209Z" fill="#068DBA"/>
<path d="M21.2717 29.6825C21.3367 29.4235 21.7263 29.4235 21.7913 29.6825L22.3694 42.0634C23.2848 42.4638 23.925 43.3763 23.925 44.4394C23.9249 45.8713 22.7642 47.0319 21.3323 47.0321C19.9001 47.0321 18.7387 45.8715 18.7385 44.4394C18.7385 43.3459 19.4158 42.4115 20.3733 42.0302L21.2717 29.6825Z" fill="#264891"/>
</svg>
